# xmcd CD database file
#
# Track frame offsets:
#	150
#	11961
#	26298
#	38774
#	54733
#	65918
#	84839
#	96449
#	103589
#	118795
#	136385
#	152042
#	163721
#	176925
#
# Disc length: 2651 seconds
#
# Revision: 0
# Processed by: cddbd v1.5.2PL0 Copyright (c) Steve Scherf et al.
# Submitted via: CDex 1.51
#
DISCID=bf0a590e
DTITLE=Juliane Wilde - Julianes wilde Bande - Eine Kinderplatte
DYEAR=2005
DGENRE=Jazz
TTITLE0=Anfangslied
TTITLE1=Hände waschen
TTITLE2=Tralala instrumentenlied
TTITLE3=Grün ja grün
TTITLE4=Kleine Fische
TTITLE5=Spazieren
TTITLE6=Drei Chinesen
TTITLE7=Gummiballhuhn
TTITLE8=Laterne
TTITLE9=Heute bleibe ich zu Haus
TTITLE10=Schneckenlied
TTITLE11=Blümelein
TTITLE12=Schlange
TTITLE13=Wunder
EXTD=YEAR: 2005
EXTT0=
EXTT1=
EXTT2=
EXTT3=
EXTT4=
EXTT5=
EXTT6=
EXTT7=
EXTT8=
EXTT9=
EXTT10=
EXTT11=
EXTT12=
EXTT13=
PLAYORDER=
